<svg xmlns="http://www.w3.org/2000/svg" xmlns:xlink="http://www.w3.org/1999/xlink" width="150.5" height="162" viewBox="0 0 150.5 162"><defs><path id="a" d="M0 0h150.5v162H0z"/></defs><clipPath id="b"><use xlink:href="#a" overflow="visible"/></clipPath><path d="M98.9 90.1c0 27.3-22.1 49.5-49.5 49.5S0 117.4 0 90.1s22.1-49.5 49.5-49.5 49.4 22.2 49.4 49.5" clip-path="url(#b)" fill="#EAEAEA"/><path d="M59.9 33.6S69.3 8.5 71.2 6.4c1.9-2.1 10 28.7-1.6 37-2.8 4.1-9.7.3-9.7.3V33.6z" clip-path="url(#b)" fill="#8C180C"/><path d="M61.4 75.3c1.3-5.7 26.9-9.7 37.1-11.9 10.1-2.2 6.3-5 6.3-5h3.6c.1-.4.1-.9.1-1.3.1-1.8-.8-3.5-2.4-4.3C86.4 42.2 72.4 41.6 66.3 42c-1.6.1-3.1-1.1-3.2-2.7C62.1 28.3 49.2 1.1 44 0c-6.9 7.3-8 22-6.4 33.7C39.2 45.4 50 52.2 50 52.2s-9.1 65-7.4 65c7.2 1.5 13.3 2.2 18.3 2.3-.2-4.6-.8-38.8.5-44.2" clip-path="url(#b)" fill="#D6503E"/><path d="M108.2 54.2c-2.5-.2-5 .4-7.1 1.8l7.2 2.4c0-1.4-.1-2.8-.1-4.2" clip-path="url(#b)" fill="#540C09"/><path d="M77.8 113.2c-.4-2.8-4-34.3-3.2-37.2.8-2.8 28.7-9.3 31.5-11.7 1.4-1.2 2-3.7 2.2-5.9h-3.6s3.9 2.8-6.3 5c-10.1 2.2-35.7 6.2-37.1 11.9-1.2 5.4-1.6 41.9-1.5 46.5 1.7 0 4.8-.6 6.3-.7 3.8-.5 9.1-1.2 12.8-2.2.1 0-.7-2.9-1.1-5.7M56.1 33.4c-.2-8.5-3.2-14-5.9-17.3-1.3-1.7-2.8-3.3-4.7-4.2-2.4 5.3-2.1 11.6-.1 17.1 2 5.5 5.7 10.2 9.8 14.4.8-3.3 1.1-6.6.9-10" clip-path="url(#b)" fill="#8C180C"/><path d="M108.3 59.5c0 .4 0 .8-.2 1.2-.1.4-.4.7-.6 1-.5.6-1.2 1.1-2 1.4-.7.4-1.5.6-2.3.7-.4.1-.7.1-1.1.2-.4 0-.7.1-1.1.1h-2.3c-.8-.1-1.6-.3-2.3-.5-.7-.3-1.5-.7-2.1-1.1-.6-.5-1.2-1-1.7-1.6l-.1-.2s0-.1-.1-.1c-.1-.1-.1-.2-.2-.3l-.4-.6-.5-.7c-.1-.2-.3-.4-.4-.6.1.2.3.4.5.5l.6.5c.2.2.4.3.6.5l.3.3c0 .1.1.1.1.2s.1.1.1.3l-.1-.4c.7.2 1.4.5 2 .7.7.2 1.3.4 1.9.4.6.1 1.3.1 1.9.2h4.1c.6 0 1.3-.1 1.9-.2.6-.1 1.3-.3 1.8-.5.3-.1.6-.3.8-.5.5-.4.7-.6.9-.9" clip-path="url(#b)" fill="#540C09"/><path d="M74.6 50c-.3-1.5-1.4-2.8-2.8-3.5C69 45 65 46 63.2 48.7c-1.8 2.7-1 6.8 1.6 8.7 2.6 1.9 6.8 1.2 8.7-1.4 1.3-1.8 1.5-4.1 1.3-6.3-.1-.6-.5-1.4-1.1-1.2" clip-path="url(#b)" fill="#FFF"/><path d="M73.9 54.3c.9-1.5.6-3.6-.7-4.8-1.3-1.2-3.3-1.5-4.9-.8-1.6.6-2.9 2.1-3.2 3.9-.3 1.8.7 3.7 2.3 4.6 1.6.9 3.7.7 5.1-.4.6-.5 1.1-1.1 1.3-1.9" clip-path="url(#b)" fill="#8C180C"/><path d="M70.6 54.2c0 1-.8 1.9-1.9 1.9-1 0-1.9-.8-1.9-1.9 0-1 .8-1.9 1.9-1.9 1.1 0 1.9.8 1.9 1.9M77.2 108.4l-3.6 1.8c-.6-2.8-.8-6.6 2.1-9.2-12.5 11.3-32.6 4.5-32.6 4.5S25 119.6 19.7 129.6c.7.5 21.6 14.8 28.3 16.1 6.7 1.3 31.4-23.8 31.4-23.8l-2.2-13.5z" clip-path="url(#b)" fill="#FFF"/><path clip-path="url(#b)" fill="#7AADCC" d="M77.9 159.8l-56.8-27 56.8-26.7"/><path clip-path="url(#b)" fill="#0B4482" d="M21.6 132.8v2.1L81.9 162v-2.8"/><path d="M77.9 99.5s-6.9.7-7.1 6c-.2 5.3 4.9 5.5 4.9 5.5h2.1l.1-11.5z" clip-path="url(#b)" fill="#D6503E"/><path transform="rotate(22.13 65.027 138.05)" clip-path="url(#b)" fill="#7AADCC" d="M31.5 135.6h67v5h-67z"/><path transform="rotate(22.13 82.48 129.58)" clip-path="url(#b)" fill="#7AADCC" d="M49 127.1h67v5H49z"/><path clip-path="url(#b)" fill="#0B4482" d="M77.9 92.6l70.3-34v63.5l-71.1 37.7"/><path clip-path="url(#b)" fill="#7AADCC" d="M81.9 92.7l68.6-32.5v64.4l-68.6 36.5"/><path clip-path="url(#b)" fill="#FFF" d="M77.9 92.6l4 .1V162l-4.8-2.2"/><path clip-path="url(#b)" fill="#0B4482" d="M60.2 128.7l-11.8-5-6.7 3.5 12 5.2M52 133.3s-9.2-3.3-12.5-4.9l-8.3 4.4 12.4 5.2 8.4-4.7zM47.1 139.5l6.4 2.7 15.3-9.8-5.8-2.5M74.3 109.9L51.4 122l20.2 8.6 5.9-3.8.2-15.8M77.1 131.1l-18.5 13.4 7.5 2.9s9.3-7.3 11-9v-7.3zM77.2 142.2l-7.7 7.3 7.7 3.5"/><path d="M59.4 122c-.5-1.8-1.8-3.4-3.2-4.6-2.5-2.2-5.7-3.6-9-4.1-2.8-.7-5-.4-6.7.4h-.2l-.1.1c-6.3 3.2-6.9 13.5-6.9 13.5l5.9-2.8c.3.6.6 1.2 1 1.7 2.5 3 6.8 3.2 10.7 3.3 2.7 0 5.7-.1 7.5-2.1 1.2-1.4 1.5-3.5 1-5.4" clip-path="url(#b)" fill="#D6503E"/></svg>